<?xml version="1.0" encoding="UTF-8" standalone="no"?>
<svg
   xmlns:dc="http://purl.org/dc/elements/1.1/"
   xmlns:cc="http://creativecommons.org/ns#"
   xmlns:rdf="http://www.w3.org/1999/02/22-rdf-syntax-ns#"
   xmlns:svg="http://www.w3.org/2000/svg"
   xmlns="http://www.w3.org/2000/svg"
   xmlns:sodipodi="http://sodipodi.sourceforge.net/DTD/sodipodi-0.dtd"
   xmlns:inkscape="http://www.inkscape.org/namespaces/inkscape"
   inkscape:version="1.0 (4035a4fb49, 2020-05-01)"
   sodipodi:docname="envelope-open.svg"
   id="svg875"
   version="1.1"
   fill="currentColor"
   class="bi bi-envelope-open"
   viewBox="0 0 16 16"
   height="1em"
   width="1em">
  <metadata
     id="metadata881">
    <rdf:RDF>
      <cc:Work
         rdf:about="">
        <dc:format>image/svg+xml</dc:format>
        <dc:type
           rdf:resource="http://purl.org/dc/dcmitype/StillImage" />
      </cc:Work>
    </rdf:RDF>
  </metadata>
  <defs
     id="defs879" />
  <sodipodi:namedview
     inkscape:current-layer="svg875"
     inkscape:window-maximized="0"
     inkscape:window-y="0"
     inkscape:window-x="0"
     inkscape:cy="8"
     inkscape:cx="8"
     inkscape:zoom="53.125"
     showgrid="false"
     id="namedview877"
     inkscape:window-height="480"
     inkscape:window-width="820"
     inkscape:pageshadow="2"
     inkscape:pageopacity="0"
     guidetolerance="10"
     gridtolerance="10"
     objecttolerance="10"
     borderopacity="1"
     bordercolor="#666666"
     pagecolor="#ffffff" />
  <path
     style="fill:#f9f9f9"
     id="path873"
     d="M8.47 1.318a1 1 0 0 0-.94 0l-6 3.2A1 1 0 0 0 1 5.4v.818l5.724 3.465L8 8.917l1.276.766L15 6.218V5.4a1 1 0 0 0-.53-.882l-6-3.2zM15 7.388l-4.754 2.877L15 13.117v-5.73zm-.035 6.874L8 10.083l-6.965 4.18A1 1 0 0 0 2 15h12a1 1 0 0 0 .965-.738zM1 13.117l4.754-2.852L1 7.387v5.73zM7.059.435a2 2 0 0 1 1.882 0l6 3.2A2 2 0 0 1 16 5.4V14a2 2 0 0 1-2 2H2a2 2 0 0 1-2-2V5.4a2 2 0 0 1 1.059-1.765l6-3.2z"
     fill-rule="evenodd" />
</svg>
