<?xml version="1.0" encoding="UTF-8" standalone="no"?>
<svg
   xmlns:dc="http://purl.org/dc/elements/1.1/"
   xmlns:cc="http://creativecommons.org/ns#"
   xmlns:rdf="http://www.w3.org/1999/02/22-rdf-syntax-ns#"
   xmlns:svg="http://www.w3.org/2000/svg"
   xmlns="http://www.w3.org/2000/svg"
   xmlns:sodipodi="http://sodipodi.sourceforge.net/DTD/sodipodi-0.dtd"
   xmlns:inkscape="http://www.inkscape.org/namespaces/inkscape"
   width="200mm"
   height="200mm"
   viewBox="0 0 200 200"
   version="1.1"
   id="svg8"
   sodipodi:docname="dna_icon.svg"
   inkscape:version="1.0 (4035a4fb49, 2020-05-01)">
  <defs
     id="defs2">
    <inkscape:path-effect
       effect="taper_stroke"
       id="path-effect179"
       is_visible="true"
       lpeversion="1"
       stroke_width="3.7891615"
       attach_start="0.90722465"
       end_offset="1e-07"
       smoothing="0.5"
       jointype="extrapolated"
       miter_limit="100" />
    <inkscape:path-effect
       effect="taper_stroke"
       id="path-effect177"
       is_visible="true"
       lpeversion="1"
       stroke_width="3.7891615"
       attach_start="0.90948241"
       end_offset="0.89546282"
       smoothing="0.5"
       jointype="extrapolated"
       miter_limit="100" />
    <inkscape:path-effect
       effect="taper_stroke"
       id="path-effect175"
       is_visible="true"
       lpeversion="1"
       stroke_width="3.7891615"
       attach_start="1e-07"
       end_offset="0.60417276"
       smoothing="0.5"
       jointype="extrapolated"
       miter_limit="100" />
    <inkscape:path-effect
       miter_limit="100.6"
       jointype="extrapolated"
       smoothing="0"
       end_offset="0.4"
       attach_start="1.6"
       stroke_width="2.7221325"
       lpeversion="1"
       is_visible="true"
       id="path-effect165"
       effect="taper_stroke" />
    <inkscape:path-effect
       miter_limit="100.6"
       jointype="extrapolated"
       smoothing="0"
       end_offset="0.4"
       attach_start="1.6"
       stroke_width="2.530229"
       lpeversion="1"
       is_visible="true"
       id="path-effect156"
       effect="taper_stroke" />
    <inkscape:path-effect
       miter_limit="100.6"
       jointype="extrapolated"
       smoothing="0"
       end_offset="0.4"
       attach_start="1.6"
       stroke_width="2.1266593"
       lpeversion="1"
       is_visible="true"
       id="path-effect147"
       effect="taper_stroke" />
    <inkscape:path-effect
       miter_limit="100.6"
       jointype="extrapolated"
       smoothing="0"
       end_offset="0.4"
       attach_start="1.6"
       stroke_width="2.1266593"
       lpeversion="1"
       is_visible="true"
       id="path-effect138"
       effect="taper_stroke" />
    <inkscape:path-effect
       miter_limit="100.6"
       jointype="extrapolated"
       smoothing="0"
       end_offset="0.4"
       attach_start="1.6"
       stroke_width="2.8514531"
       lpeversion="1"
       is_visible="true"
       id="path-effect129"
       effect="taper_stroke" />
    <inkscape:path-effect
       miter_limit="100.6"
       jointype="extrapolated"
       smoothing="0"
       end_offset="0.4"
       attach_start="1.6"
       stroke_width="2.7376819"
       lpeversion="1"
       is_visible="true"
       id="path-effect120"
       effect="taper_stroke" />
    <inkscape:path-effect
       miter_limit="100.6"
       jointype="extrapolated"
       smoothing="0"
       end_offset="0.4"
       attach_start="1.6"
       stroke_width="2.1266593"
       lpeversion="1"
       is_visible="true"
       id="path-effect111"
       effect="taper_stroke" />
    <inkscape:path-effect
       miter_limit="100.6"
       jointype="extrapolated"
       smoothing="0"
       end_offset="0.4"
       attach_start="1.6"
       stroke_width="2.4041246"
       lpeversion="1"
       is_visible="true"
       id="path-effect102"
       effect="taper_stroke" />
    <inkscape:path-effect
       miter_limit="100.6"
       jointype="extrapolated"
       smoothing="0"
       end_offset="0.4"
       attach_start="1.6"
       stroke_width="1.8945807"
       lpeversion="1"
       is_visible="true"
       id="path-effect93"
       effect="taper_stroke" />
    <inkscape:path-effect
       effect="taper_stroke"
       id="path-effect74"
       is_visible="true"
       lpeversion="1"
       stroke_width="2.1266593"
       attach_start="1.6"
       end_offset="0.4"
       smoothing="0"
       jointype="extrapolated"
       miter_limit="100.6" />
    <inkscape:path-effect
       miter_limit="100"
       jointype="extrapolated"
       smoothing="0.5"
       end_offset="0.9573915"
       attach_start="1.9544789"
       stroke_width="4.7364519"
       lpeversion="1"
       is_visible="true"
       id="path-effect48"
       effect="taper_stroke" />
    <inkscape:path-effect
       effect="taper_stroke"
       id="path-effect29"
       is_visible="true"
       lpeversion="1"
       stroke_width="0.47"
       attach_start="2.1"
       end_offset="0.1"
       smoothing="0.5"
       jointype="extrapolated"
       miter_limit="100" />
    <inkscape:path-effect
       effect="powerstroke"
       id="path-effect27"
       is_visible="true"
       lpeversion="1"
       offset_points="0.2,0.1322915 | 1.5,0.1322915 | 2.8,0.1322915"
       sort_points="true"
       interpolator_type="CentripetalCatmullRom"
       interpolator_beta="1"
       start_linecap_type="zerowidth"
       linejoin_type="round"
       miter_limit="10"
       scale_width="3"
       end_linecap_type="zerowidth" />
  </defs>
  <sodipodi:namedview
     id="base"
     pagecolor="#ffffff"
     bordercolor="#666666"
     borderopacity="1.0"
     inkscape:pageopacity="0.0"
     inkscape:pageshadow="2"
     inkscape:zoom="0.7"
     inkscape:cx="362.67435"
     inkscape:cy="416.87915"
     inkscape:document-units="mm"
     inkscape:current-layer="layer1"
     inkscape:document-rotation="0"
     showgrid="false"
     inkscape:window-width="1920"
     inkscape:window-height="1017"
     inkscape:window-x="-8"
     inkscape:window-y="-8"
     inkscape:window-maximized="1" />
  <metadata
     id="metadata5">
    <rdf:RDF>
      <cc:Work
         rdf:about="">
        <dc:format>image/svg+xml</dc:format>
        <dc:type
           rdf:resource="http://purl.org/dc/dcmitype/StillImage" />
        <dc:title />
      </cc:Work>
    </rdf:RDF>
  </metadata>
  <g
     inkscape:label="Layer 1"
     inkscape:groupmode="layer"
     id="layer1">
    <path
       inkscape:original-d="m 56.228569,159.66542 c 0,0 -7.822177,10.84768 10.076455,-16.69918 C 95.582713,97.906503 138.63312,135.83356 158.47585,94.916609 173.22266,64.507727 110.96627,52.169816 146.44953,1.2025508"
       inkscape:path-effect="#path-effect48"
       style="fill:#000000;fill-rule:nonzero;stroke:none;stroke-width:0.265258;stroke-linecap:butt;stroke-linejoin:miter;stroke-opacity:1"
       d="m 153.63249,98.749927 c -2.20015,3.411553 -4.88946,6.475733 -8.07248,8.809373 -2.81314,2.08305 -6.0534,3.61553 -9.4328,4.68583 -3.47052,1.10003 -7.13882,1.72498 -10.8112,2.18469 -3.87567,0.48093 -7.99103,0.78404 -11.86085,1.15017 -9.01885,0.82962 -17.353802,2.22868 -24.955475,5.69381 -4.595667,2.11047 -8.616979,4.86304 -11.988744,7.90476 -4.687585,4.23441 -8.224329,9.04163 -10.861609,13.36164 0,0 -3e-6,1e-5 -3e-6,1e-5 -3.888345,6.36797 -6.311165,10.3939 -8.694497,14.50137 -0.742404,1.27944 -1.291349,2.23797 -1.828727,3.22991 0,0 -2e-6,0 -2e-6,0 -0.274159,0.50434 -0.499064,0.8681 -0.663652,1.33537 0,0 0,10e-6 0,10e-6 0.0015,0.045 8.24e-4,0.0947 0.01018,0.15199 0,0 1e-6,1e-5 1e-6,1e-5 0.0036,0.0218 0.01352,0.0476 0.03064,0.0559 0,0 3e-6,1e-5 3e-6,1e-5 l 0,0 c 0.142736,-0.0161 0.216473,-0.0786 0.255609,-0.10591 0.21771,-0.24495 0.419764,-0.53335 0.567015,-0.73821 0.592893,-0.85621 0.902628,-1.30524 0.902628,-1.30524 0,0 -0.341998,0.42518 -0.992596,1.2369 -0.161681,0.19433 -0.381665,0.466 -0.605282,0.68441 -0.04733,0.0637 -0.05745,0.14024 -0.04405,0.14025 l 0,0 c 0,0 -10e-7,10e-6 -10e-7,10e-6 -0.0089,0.0117 -0.01008,0.004 -0.0047,-1.3e-4 0,0 1e-6,0 1e-6,0 0.01418,-0.0118 0.04057,-0.0268 0.06742,-0.0475 0,0 2e-6,-1e-5 2e-6,-1e-5 0.185067,-0.43282 0.424063,-0.75964 0.73628,-1.25585 0,0 2e-6,-1e-5 2e-6,-1e-5 0.604328,-0.95561 1.205126,-1.85934 2.032153,-3.09294 2.833057,-4.22551 5.109768,-7.51662 9.542976,-13.93834 0,0 3e-6,0 3e-6,0 2.819373,-4.07805 6.496097,-8.55671 11.147796,-12.35666 3.336953,-2.72959 7.245826,-5.14727 11.619609,-6.93603 7.224345,-2.97978 15.147079,-3.95043 24.043449,-4.54798 3.83875,-0.24782 7.97377,-0.44224 12.02237,-0.8471 3.82547,-0.37858 7.76798,-0.98016 11.65629,-2.12775 3.81258,-1.12636 7.53158,-2.83919 10.8653,-5.23988 3.74389,-2.71914 6.849,-6.19175 9.30254,-10.02782 1.05038,-1.635861 2.04725,-3.417839 2.98866,-5.35908 0.68187,-1.406076 1.21914,-2.791278 1.62066,-4.159508 1.04536,-3.56993 1.176,-7.369322 0.3758,-10.988207 -0.81555,-3.581304 -2.37341,-6.822329 -4.16857,-9.724504 -4.18102,-6.79448 -9.34534,-12.346472 -13.35466,-18.064651 -2.27682,-3.25433 -4.21208,-6.469232 -5.65145,-9.822503 -1.62475,-3.778503 -2.55271,-7.60457 -2.80304,-11.298177 0,0 0,-5e-6 0,-5e-6 -0.34903,-5.004265 0.53184,-9.775055 1.71628,-13.703088 3.35498,-11.1245396 8.10778,-16.9867862 8.10778,-16.9867862 0,0 -5.29267,5.3535919 -9.57088,16.4848342 -1.52066,3.956995 -2.78699,8.878685 -2.75863,14.295774 0,2e-6 0,4e-6 0,6e-6 0.0284,4.000755 0.78123,8.207786 2.33178,12.394134 1.3714,3.697107 3.26205,7.237447 5.49909,10.729408 3.94763,6.174185 8.91836,11.897996 12.61753,18.282753 1.55656,2.703369 2.87781,5.513111 3.46507,8.403334 0.60026,2.841976 0.47387,5.861169 -0.3509,8.663964 -0.323,1.100665 -0.76282,2.241202 -1.33762,3.426479 -0.86512,1.783929 -1.77095,3.400364 -2.71248,4.86669 z"
       id="path10-4-9"
       sodipodi:nodetypes="cssc" />
    <path
       style="fill:#d4aa00;fill-rule:nonzero;stroke:none;stroke-width:1.31301px;stroke-linecap:butt;stroke-linejoin:miter;stroke-opacity:1"
       d="m 111.04961,153.32877 c 0,0 -0.76854,-0.46098 -2.42692,-1.02645 -4.78596,-1.59681 -12.767976,-4.16447 -21.54072,-6.25777 -8.20096,-1.95686 -15.427867,-2.95126 -15.427867,-2.95126 0,0 7.166888,1.37266 15.21621,3.74562 8.602319,2.53598 16.410347,5.50761 21.072577,7.33761 1.33756,0.52194 2.19345,1.07283 2.19345,1.07283 0,0 0.5031,-0.049 1.01075,-0.12697 0.50857,-0.0781 0.98628,-0.20157 0.98628,-0.20157 0,0 -0.31259,-0.38206 -0.57535,-0.77923 -0.26312,-0.39771 -0.50841,-0.81281 -0.50841,-0.81281 z"
       id="path54"
       inkscape:path-effect="#path-effect74"
       inkscape:original-d="m 71.654103,143.09329 c 12.141432,2.02489 24.500895,5.74708 36.628687,10.14613 1.2959,0.47004 2.55843,1.27566 3.85058,1.68139" />
    <path
       inkscape:original-d="m 80.249967,134.60755 c 11.051742,1.53621 22.271313,4.54398 33.266783,8.14441 1.17491,0.38473 2.31315,1.06178 3.48581,1.39064"
       inkscape:path-effect="#path-effect93"
       id="path54-4"
       d="m 115.98638,142.75368 c 0,0 -0.69906,-0.3885 -2.19311,-0.84619 -4.35178,-1.30228 -11.58992,-3.38236 -19.560965,-5.03533 -7.441414,-1.54315 -13.982338,-2.26461 -13.982338,-2.26461 0,0 6.496532,1.06032 13.814883,2.97862 7.83219,2.05299 14.92698,4.49667 19.17538,6.01026 1.20961,0.42828 1.98807,0.89355 1.98807,0.89355 0,0 0.4482,-0.0575 0.89912,-0.14098 0.45175,-0.0836 0.87514,-0.2064 0.87514,-0.2064 0,0 -0.29043,-0.33196 -0.53737,-0.67869 -0.24728,-0.34722 -0.47881,-0.71023 -0.47881,-0.71023 z"
       style="fill:#d4aa00;fill-rule:nonzero;stroke:none;stroke-width:1.16973px;stroke-linecap:butt;stroke-linejoin:miter;stroke-opacity:1" />
    <path
       inkscape:original-d="m 62.554611,154.86166 c 13.828709,2.16956 27.892097,6.23962 41.685729,11.0701 1.47391,0.51617 2.90699,1.40865 4.37715,1.85274"
       inkscape:path-effect="#path-effect102"
       id="path54-9"
       d="m 107.37,165.99779 c 0,0 -0.87507,-0.5112 -2.75712,-1.12982 -5.449026,-1.7515 -14.528126,-4.56143 -24.513634,-6.8332 -9.330182,-2.12268 -17.544635,-3.17311 -17.544635,-3.17311 0,0 8.150685,1.47893 17.314804,4.07405 9.798623,2.7748 18.686218,6.04311 23.998385,8.05984 1.51982,0.57357 2.49442,1.18495 2.49442,1.18495 0,0 0.56871,-0.0616 1.14197,-0.15605 0.5743,-0.0946 1.1133,-0.23995 1.1133,-0.23995 0,0 -0.35865,-0.42816 -0.66136,-0.874 -0.30312,-0.44646 -0.58613,-0.91271 -0.58613,-0.91271 z"
       style="fill:#aa0000;fill-rule:nonzero;stroke:none;stroke-width:1.48432px;stroke-linecap:butt;stroke-linejoin:miter;stroke-opacity:1" />
    <path
       inkscape:original-d="m 100.98387,102.04026 c 11.05176,1.53622 22.27131,4.54399 33.26679,8.14442 1.17492,0.38472 2.31314,1.06176 3.48585,1.39061"
       inkscape:path-effect="#path-effect111"
       id="path54-1"
       d="m 136.76672,110.08003 c 0,0 -0.69418,-0.3837 -2.20567,-0.84327 -4.35804,-1.28928 -11.60511,-3.34719 -19.58458,-4.97562 -7.44896,-1.52016 -13.9926,-2.22088 -13.9926,-2.22088 0,0 6.49381,1.08109 13.80463,3.02236 7.82362,2.07744 14.90978,4.54351 19.15177,6.06998 1.19221,0.42657 1.97553,0.89643 1.97553,0.89643 0,0 0.46148,-0.083 0.92487,-0.19312 0.46429,-0.11032 0.89584,-0.26062 0.89584,-0.26062 0,0 -0.28196,-0.35994 -0.5167,-0.73289 -0.23509,-0.37351 -0.45309,-0.76237 -0.45309,-0.76237 z"
       style="fill:#aa0000;fill-rule:nonzero;stroke:none;stroke-width:1.16973px;stroke-linecap:butt;stroke-linejoin:miter;stroke-opacity:1" />
    <path
       inkscape:original-d="m 101.87662,88.423037 c 14.08164,2.140716 28.39546,6.200285 42.43157,11.028992 1.49984,0.516006 2.95669,1.412251 4.45293,1.855421"
       inkscape:path-effect="#path-effect120"
       id="path54-8"
       d="m 147.54606,99.365521 c 0,0 -0.88474,-0.507325 -2.82027,-1.127326 -5.55603,-1.733216 -14.80692,-4.508726 -24.98325,-6.734286 -9.50575,-2.078904 -17.86592,-3.080872 -17.86592,-3.080872 0,0 8.28985,1.490393 17.60954,4.108422 9.96679,2.79981 19.00253,6.098254 24.40443,8.134401 1.5234,0.57109 2.52188,1.19162 2.52188,1.19162 0,0 0.59451,-0.0982 1.19235,-0.23118 0.59898,-0.13326 1.1563,-0.31885 1.1563,-0.31885 0,0 -0.35507,-0.46833 -0.6488,-0.95254 -0.29416,-0.484905 -0.56626,-0.989389 -0.56626,-0.989389 z"
       style="fill:#000080;fill-rule:nonzero;stroke:none;stroke-width:1.50581px;stroke-linecap:butt;stroke-linejoin:miter;stroke-opacity:1" />
    <path
       inkscape:original-d="m 105.98807,76.761882 c 14.64846,2.250619 29.54078,6.502954 44.14528,11.557183 1.56057,0.540069 3.07692,1.476775 4.6337,1.940909"
       inkscape:path-effect="#path-effect129"
       id="path54-43"
       d="m 153.50569,88.235159 c 0,0 -0.92038,-0.530148 -2.9351,-1.179531 -5.78007,-1.814641 -15.40553,-4.721694 -25.99265,-7.056317 -9.89025,-2.180953 -18.58987,-3.237429 -18.58987,-3.237429 0,0 8.62558,1.565035 18.32099,4.307126 10.36774,2.932244 19.7681,6.38364 25.38705,8.513494 1.58527,0.597596 2.624,1.245955 2.624,1.245955 0,0 0.61929,-0.101138 1.24215,-0.238539 0.62406,-0.137665 1.20479,-0.329944 1.20479,-0.329944 0,0 -0.36884,-0.488431 -0.67371,-0.993282 -0.30531,-0.505584 -0.58765,-1.031533 -0.58765,-1.031533 z"
       style="fill:#008000;fill-rule:nonzero;stroke:none;stroke-width:1.5684px;stroke-linecap:butt;stroke-linejoin:miter;stroke-opacity:1" />
    <path
       inkscape:original-d="m 116.27489,66.762631 c 11.05174,1.536238 22.27131,4.543999 33.26677,8.144429 1.17495,0.384713 2.31317,1.061763 3.48584,1.390631"
       inkscape:path-effect="#path-effect138"
       id="path54-19"
       d="m 152.05775,74.802417 c 0,0 -0.69419,-0.383724 -2.20571,-0.843276 -4.35806,-1.289297 -11.60509,-3.347188 -19.58457,-4.975621 -7.44895,-1.520163 -13.99258,-2.220889 -13.99258,-2.220889 0,0 6.4938,1.081094 13.80461,3.022368 7.82363,2.077445 14.90976,4.543495 19.15178,6.06998 1.19221,0.426556 1.97553,0.896434 1.97553,0.896434 0,0 0.46147,-0.08302 0.92486,-0.193118 0.46428,-0.11031 0.89583,-0.260604 0.89583,-0.260604 0,0 -0.28195,-0.359948 -0.51668,-0.732902 -0.23507,-0.373506 -0.45307,-0.762372 -0.45307,-0.762372 z"
       style="fill:#008000;fill-rule:nonzero;stroke:none;stroke-width:1.16973px;stroke-linecap:butt;stroke-linejoin:miter;stroke-opacity:1" />
    <path
       inkscape:original-d="m 137.61121,38.146176 c 11.05175,1.536231 22.27131,4.543996 33.2668,8.144426 1.17492,0.384704 2.31318,1.061795 3.48585,1.390652"
       inkscape:path-effect="#path-effect147"
       id="path54-3"
       d="m 173.3941,46.185977 c 0,0 -0.69417,-0.383735 -2.20571,-0.843294 -4.35806,-1.289291 -11.60512,-3.347189 -19.58459,-4.97562 -7.44896,-1.520164 -13.99259,-2.220887 -13.99259,-2.220887 0,0 6.4938,1.081091 13.80462,3.022365 7.82363,2.077443 14.90978,4.543501 19.1518,6.06998 1.1922,0.426551 1.97552,0.896448 1.97552,0.896448 0,0 0.46148,-0.08302 0.92487,-0.193111 0.46429,-0.110308 0.89584,-0.260604 0.89584,-0.260604 0,0 -0.28195,-0.359946 -0.51668,-0.732901 -0.23508,-0.373507 -0.45308,-0.762376 -0.45308,-0.762376 z"
       style="fill:#d4aa00;fill-rule:nonzero;stroke:none;stroke-width:1.16973px;stroke-linecap:butt;stroke-linejoin:miter;stroke-opacity:1" />
    <path
       inkscape:original-d="m 138.18496,25.948263 c 13.29504,1.66823 26.77397,5.063676 39.9756,9.158349 1.4106,0.43752 2.77348,1.219026 4.18206,1.590975"
       inkscape:path-effect="#path-effect156"
       id="path54-2"
       d="m 181.15567,34.935426 c 0,0 -0.83497,-0.443422 -2.64345,-0.962604 -5.23935,-1.461975 -13.94069,-3.787174 -23.53068,-5.598348 -8.94657,-1.689657 -16.79658,-2.426211 -16.79658,-2.426211 0,0 7.79669,1.19021 16.58696,3.383655 9.41328,2.348904 17.93102,5.162047 23.03698,6.908484 1.4302,0.486319 2.37199,1.029947 2.37199,1.029947 0,0 0.54865,-0.107232 1.09875,-0.246661 0.55116,-0.1397 1.06298,-0.326101 1.06298,-0.326101 0,0 -0.34325,-0.423362 -0.63094,-0.863033 -0.28811,-0.440331 -0.55601,-0.899128 -0.55601,-0.899128 z"
       style="fill:#000080;fill-rule:nonzero;stroke:none;stroke-width:1.39171px;stroke-linecap:butt;stroke-linejoin:miter;stroke-opacity:1" />
    <path
       inkscape:original-d="m 142.95047,13.788428 c 14.55968,1.524122 29.29053,4.867202 43.70468,8.952984 1.54017,0.436585 3.02184,1.236913 4.56098,1.604331"
       inkscape:path-effect="#path-effect165"
       id="path54-84"
       d="m 189.88147,22.479055 c 0,0 -0.91446,-0.454776 -2.87787,-0.966899 -5.732,-1.450546 -15.23264,-3.743715 -25.71926,-5.478282 -9.77332,-1.616582 -18.33387,-2.245446 -18.33387,-2.245446 0,0 8.51312,1.118591 18.13193,3.281525 10.31131,2.318654 19.62776,5.140457 25.2243,6.900715 1.56014,0.487703 2.59049,1.046338 2.59049,1.046338 0,0 0.58975,-0.129576 1.17967,-0.293681 0.59108,-0.164425 1.13927,-0.377582 1.13927,-0.377582 0,0 -0.38279,-0.447073 -0.70693,-0.91307 -0.32464,-0.466712 -0.62773,-0.953618 -0.62773,-0.953618 z"
       style="fill:#000000;fill-rule:nonzero;stroke:none;stroke-width:1.49727px;stroke-linecap:butt;stroke-linejoin:miter;stroke-opacity:1" />
    <path
       style="fill:#000000;fill-rule:nonzero;stroke:none;stroke-width:1.00255px;stroke-linecap:butt;stroke-linejoin:miter;stroke-opacity:1"
       d="m 110.44969,177.8445 c 3.79109,-3.70338 6.95127,-9.41236 7.399,-10.24346 3.21338,-5.9415 4.81607,-12.38701 4.6643,-18.57512 0,0 0,0 0,0 -0.21577,-7.3505 -2.96625,-13.31268 -5.30012,-17.12395 -2.36759,-3.86633 -4.30453,-5.7881 -4.30453,-5.7881 0,0 1.56801,2.23853 3.3415,6.29171 1.75374,4.00806 3.64401,9.93715 3.26356,16.58498 0,0 0,0 0,0 -0.29104,5.63427 -2.07042,11.35081 -5.00061,16.81338 -0.17683,0.32826 -3.27551,5.97413 -6.7109,9.33004 z"
       id="path167"
       sodipodi:nodetypes="cc"
       inkscape:path-effect="#path-effect175"
       inkscape:original-d="m 109.12579,176.48924 c 0,0 24.01673,-23.4611 3.78255,-50.37537" />
    <path
       style="fill:#000000;fill-rule:nonzero;stroke:none;stroke-width:1.00255px;stroke-linecap:butt;stroke-linejoin:miter;stroke-opacity:1"
       d="m 96.354533,80.153377 c -2.96209,8.584201 -1.368308,17.206928 0.986603,23.280953 3.123934,5.9293 5.366934,9.80554 5.366934,9.80554 0,0 -1.332,-4.28785 -3.52019,-10.48917 -1.377031,-6.155523 -1.919082,-14.018268 0.739141,-21.33436 0.534929,-1.513126 1.219279,-3.02854 2.077859,-4.530902 1.25464,-2.1954 2.65025,-4.108511 4.13817,-5.772398 2.99148,-3.349715 6.57482,-6.030861 10.3821,-7.97374 3.63308,-1.874205 7.36639,-3.022095 10.71591,-3.725281 7.23761,-0.526912 12.24096,-1.04685 12.26366,-1.049218 0,0 0,0 0,0 0,0 0,0 0,0 0,0 0,0 0,0 0,0 0,0 0,0 0,0 0,0 0,0 0,0 0,0 0,0 0,0 0,0 0,0 5e-5,-10e-7 4e-5,-10e-7 4e-5,-10e-7 0,0 1e-5,2e-6 -4e-5,-1.4e-5 0,0 0,0 0,0 0,0 0,0 0,0 0,0 0,0 0,0 0,0 0,0 0,0 0,0 0,0 0,0 0,0 0,0 0,0 0,0 0,0 0,0 -0.0223,-0.0021 -4.91876,-0.460127 -12.40596,-0.894972 -3.56509,0.269137 -7.70273,1.034746 -11.90966,2.757651 -4.33733,1.793948 -8.49122,4.585155 -11.87059,8.359763 -1.66777,1.86501 -3.21679,3.991674 -4.603465,6.418115 -0.973733,1.703858 -1.751506,3.425365 -2.360512,5.148034 z"
       id="path169"
       sodipodi:nodetypes="csc"
       inkscape:path-effect="#path-effect177"
       inkscape:original-d="m 102.70809,113.23991 c 0,0 -12.469434,-19.584043 -2.34813,-37.294519 12.6334,-22.106211 39.1448,-17.580591 39.1448,-17.580591" />
    <path
       style="fill:#000000;fill-rule:nonzero;stroke:none;stroke-width:1.00255px;stroke-linecap:butt;stroke-linejoin:miter;stroke-opacity:1"
       d="m 189.25048,32.118432 c -6.58013,9.5297 -14.10967,16.129312 -21.61598,20.39306 l 0,0 c -3.24266,1.843105 -5.95888,2.98384 -8.03375,3.725499 l 0,0 c -1.02367,0.365903 -1.7939,0.59967 -2.36607,0.75954 l 0,0 c 0,0 0,0 0,0 -0.28345,0.0792 -0.48763,0.131508 -0.63913,0.168681 l 0,0 c 0,0 0,0 0,0 -0.0747,0.01832 -0.12761,0.03074 -0.16693,0.03976 -0.0193,0.0044 -0.033,0.0075 -0.0432,0.0098 -0.0103,0.0023 -0.0155,0.0034 -0.0155,0.0034 0,0 0.005,-1.89e-4 0.0159,-6.51e-4 0.0104,-4.59e-4 0.0245,-0.0011 0.0443,-0.0022 0.0401,-0.0021 0.095,-0.0053 0.1716,-0.01074 0,0 0,0 0,0 l 0,0 c 0.15491,-0.01094 0.36814,-0.02858 0.66137,-0.0604 0,0 0,0 0,0 l 0,0 c 0.58938,-0.06397 1.40402,-0.173772 2.4811,-0.382668 l 0,0 c 2.17175,-0.421208 5.1278,-1.187582 8.66534,-2.668755 l 0,0 c 8.1115,-3.399772 17.04495,-9.770022 23.96098,-19.824169 1.5644,-2.270057 3.07622,-4.742546 4.50987,-7.435575 l -3.34473,-1.780591 c -1.36622,2.566355 -2.80333,4.91576 -4.28517,7.066013 z"
       id="path173"
       inkscape:path-effect="#path-effect179"
       inkscape:original-d="m 156.36986,57.218142 c 0,0 23.74864,-2.930672 38.83816,-31.275436" />
  </g>
</svg>
