<?xml version="1.0" encoding="UTF-8" standalone="no"?>
<svg
   xmlns:dc="http://purl.org/dc/elements/1.1/"
   xmlns:cc="http://creativecommons.org/ns#"
   xmlns:rdf="http://www.w3.org/1999/02/22-rdf-syntax-ns#"
   xmlns:svg="http://www.w3.org/2000/svg"
   xmlns="http://www.w3.org/2000/svg"
   xmlns:sodipodi="http://sodipodi.sourceforge.net/DTD/sodipodi-0.dtd"
   xmlns:inkscape="http://www.inkscape.org/namespaces/inkscape"
   inkscape:version="1.0 (4035a4fb49, 2020-05-01)"
   sodipodi:docname="dna_icon.svg"
   id="svg8"
   version="1.1"
   viewBox="0 0 200 200"
   height="200mm"
   width="200mm">
  <defs
     id="defs2">
    <inkscape:path-effect
       miter_limit="100"
       jointype="extrapolated"
       smoothing="0.5"
       end_offset="1e-07"
       attach_start="0.90722465"
       stroke_width="3.1146601"
       lpeversion="1"
       is_visible="true"
       id="path-effect179"
       effect="taper_stroke" />
    <inkscape:path-effect
       miter_limit="100"
       jointype="extrapolated"
       smoothing="0.5"
       end_offset="0.89546282"
       attach_start="0.90948241"
       stroke_width="3.1146601"
       lpeversion="1"
       is_visible="true"
       id="path-effect177"
       effect="taper_stroke" />
    <inkscape:path-effect
       miter_limit="100"
       jointype="extrapolated"
       smoothing="0.5"
       end_offset="0.60417276"
       attach_start="1e-07"
       stroke_width="3.1146601"
       lpeversion="1"
       is_visible="true"
       id="path-effect175"
       effect="taper_stroke" />
    <inkscape:path-effect
       effect="taper_stroke"
       id="path-effect165"
       is_visible="true"
       lpeversion="1"
       stroke_width="2.237571"
       attach_start="1.6"
       end_offset="0.4"
       smoothing="0"
       jointype="extrapolated"
       miter_limit="100.6" />
    <inkscape:path-effect
       effect="taper_stroke"
       id="path-effect156"
       is_visible="true"
       lpeversion="1"
       stroke_width="2.0798278"
       attach_start="1.6"
       end_offset="0.4"
       smoothing="0"
       jointype="extrapolated"
       miter_limit="100.6" />
    <inkscape:path-effect
       effect="taper_stroke"
       id="path-effect147"
       is_visible="true"
       lpeversion="1"
       stroke_width="1.7480967"
       attach_start="1.6"
       end_offset="0.4"
       smoothing="0"
       jointype="extrapolated"
       miter_limit="100.6" />
    <inkscape:path-effect
       effect="taper_stroke"
       id="path-effect138"
       is_visible="true"
       lpeversion="1"
       stroke_width="1.7480967"
       attach_start="1.6"
       end_offset="0.4"
       smoothing="0"
       jointype="extrapolated"
       miter_limit="100.6" />
    <inkscape:path-effect
       effect="taper_stroke"
       id="path-effect129"
       is_visible="true"
       lpeversion="1"
       stroke_width="2.3438714"
       attach_start="1.6"
       end_offset="0.4"
       smoothing="0"
       jointype="extrapolated"
       miter_limit="100.6" />
    <inkscape:path-effect
       effect="taper_stroke"
       id="path-effect120"
       is_visible="true"
       lpeversion="1"
       stroke_width="2.2503524"
       attach_start="1.6"
       end_offset="0.4"
       smoothing="0"
       jointype="extrapolated"
       miter_limit="100.6" />
    <inkscape:path-effect
       effect="taper_stroke"
       id="path-effect111"
       is_visible="true"
       lpeversion="1"
       stroke_width="1.7480967"
       attach_start="1.6"
       end_offset="0.4"
       smoothing="0"
       jointype="extrapolated"
       miter_limit="100.6" />
    <inkscape:path-effect
       effect="taper_stroke"
       id="path-effect102"
       is_visible="true"
       lpeversion="1"
       stroke_width="1.976171"
       attach_start="1.6"
       end_offset="0.4"
       smoothing="0"
       jointype="extrapolated"
       miter_limit="100.6" />
    <inkscape:path-effect
       effect="taper_stroke"
       id="path-effect93"
       is_visible="true"
       lpeversion="1"
       stroke_width="1.55733"
       attach_start="1.6"
       end_offset="0.4"
       smoothing="0"
       jointype="extrapolated"
       miter_limit="100.6" />
    <inkscape:path-effect
       miter_limit="100.6"
       jointype="extrapolated"
       smoothing="0"
       end_offset="0.4"
       attach_start="1.6"
       stroke_width="1.7480967"
       lpeversion="1"
       is_visible="true"
       id="path-effect74"
       effect="taper_stroke" />
    <inkscape:path-effect
       effect="taper_stroke"
       id="path-effect48"
       is_visible="true"
       lpeversion="1"
       stroke_width="3.8933252"
       attach_start="1.9544789"
       end_offset="0.9573915"
       smoothing="0.5"
       jointype="extrapolated"
       miter_limit="100" />
    <inkscape:path-effect
       miter_limit="100"
       jointype="extrapolated"
       smoothing="0.5"
       end_offset="0.1"
       attach_start="2.1"
       stroke_width="0.47"
       lpeversion="1"
       is_visible="true"
       id="path-effect29"
       effect="taper_stroke" />
    <inkscape:path-effect
       end_linecap_type="zerowidth"
       scale_width="3"
       miter_limit="10"
       linejoin_type="round"
       start_linecap_type="zerowidth"
       interpolator_beta="1"
       interpolator_type="CentripetalCatmullRom"
       sort_points="true"
       offset_points="0.2,0.1322915 | 1.5,0.1322915 | 2.8,0.1322915"
       lpeversion="1"
       is_visible="true"
       id="path-effect27"
       effect="powerstroke" />
  </defs>
  <sodipodi:namedview
     inkscape:window-maximized="1"
     inkscape:window-y="-8"
     inkscape:window-x="-8"
     inkscape:window-height="1017"
     inkscape:window-width="1920"
     showgrid="false"
     inkscape:document-rotation="0"
     inkscape:current-layer="layer1"
     inkscape:document-units="mm"
     inkscape:cy="416.87915"
     inkscape:cx="362.67435"
     inkscape:zoom="0.7"
     inkscape:pageshadow="2"
     inkscape:pageopacity="0.0"
     borderopacity="1.0"
     bordercolor="#666666"
     pagecolor="#ffffff"
     id="base" />
  <metadata
     id="metadata5">
    <rdf:RDF>
      <cc:Work
         rdf:about="">
        <dc:format>image/svg+xml</dc:format>
        <dc:type
           rdf:resource="http://purl.org/dc/dcmitype/StillImage" />
        <dc:title />
      </cc:Work>
    </rdf:RDF>
  </metadata>
  <g
     id="layer1"
     inkscape:groupmode="layer"
     inkscape:label="Layer 1">
    <path
       sodipodi:nodetypes="cssc"
       id="path10-4-9"
       d="m 125.42322,83.275585 c -1.80851,2.804272 -4.01909,5.323001 -6.63552,7.241229 -2.31238,1.712258 -4.97584,2.971945 -7.75368,3.851722 l 0,0 c -5.83414,1.865996 -12.467151,2.145395 -18.636235,2.74123 -7.413425,0.681943 -14.264688,1.831957 -20.5132,4.680264 l 0,0 c -3.777602,1.73479 -7.083087,3.99738 -9.85465,6.49765 l 0,0 c -3.853157,3.48065 -6.760332,7.43215 -8.928154,10.98316 l 0,0 c -3.195359,5.23306 -5.186851,8.54227 -7.145673,11.91806 l 0,0 c -0.610342,1.05182 -1.061712,1.83997 -1.503542,2.65545 l 0,0 c 0,0 0,1e-5 0,1e-5 -0.208332,0.45829 -0.372223,0.74131 -0.505551,1.14678 -0.0094,0.0287 -0.01946,0.057 -0.02057,0.0869 0,0 0,0 0,0 -4.19e-4,0.0114 0.0044,0.0257 0.01549,0.025 0,0 2e-6,0 2e-6,0 l 0,0 c 0.116715,-0.009 0.176612,-0.0563 0.2075,-0.0752 l 0,0 c 0,0 1e-6,0 1e-6,0 0.178698,-0.20088 0.34451,-0.43758 0.465437,-0.60579 l 0,0 c 0.204917,-0.28478 0.393139,-0.55881 0.50329,-0.72001 l 0,0 c 0.07407,-0.1084 0.13256,-0.1949 0.171784,-0.25312 0,0 0,0 0,0 0.02169,-0.0322 0.03789,-0.0563 0.04934,-0.0734 0.0088,-0.0135 0.01318,-0.0203 0.01318,-0.0203 0,0 -0.0051,0.006 -0.01517,0.0189 -0.01269,0.0162 -0.03054,0.0391 -0.05453,0.0696 0,0 -10e-7,0 -10e-7,0 -0.04321,0.0551 -0.107999,0.13738 -0.189484,0.24002 l 0,0 c -0.120532,0.15182 -0.329203,0.41362 -0.551937,0.68144 l 0,0 c -0.132828,0.15963 -0.313542,0.38282 -0.497312,0.56223 -10e-7,0 -10e-7,0 -10e-7,0 l 0,0 c -0.04004,0.0559 -0.04879,0.1223 -0.03817,0.12622 l 0,0 c 0,0 -2e-6,0 -2e-6,0 -0.01031,0.002 -0.01442,-0.0114 -0.01324,-0.0216 0,0 0,0 0,0 0.0031,-0.0269 0.01522,-0.0521 0.02684,-0.0776 0.156072,-0.34166 0.371001,-0.61334 0.646474,-0.98506 0,0 2e-6,0 2e-6,0 0.496872,-0.78563 0.990877,-1.52871 1.670787,-2.54285 l 0,0 c 2.328387,-3.47273 4.199908,-6.17814 7.842994,-11.45533 l 0,0 c 2.317501,-3.35212 5.339739,-7.03354 9.163399,-10.15707 l 0,0 c 2.742948,-2.2437 5.956009,-4.23102 9.551224,-5.70137 l 0,0 c 5.938353,-2.44935 12.450773,-3.24722 19.763523,-3.7384 6.084832,-0.380406 12.930229,-0.534081 19.463669,-2.445299 l 0,0 c 3.1339,-0.925861 6.19089,-2.333799 8.93118,-4.307145 3.07745,-2.235108 5.62983,-5.089568 7.64661,-8.242784 0.86341,-1.344665 1.68282,-2.809436 2.45665,-4.40512 0.5605,-1.155782 1.00213,-2.294407 1.33218,-3.419081 0.85928,-2.934453 0.96667,-6.057523 0.3089,-9.032217 -0.67037,-2.943803 -1.95092,-5.607899 -3.42652,-7.993464 -3.43677,-5.585007 -7.6818,-10.148699 -10.97743,-14.848996 -1.87153,-2.675033 -3.46229,-5.317657 -4.64544,-8.074018 -1.33553,-3.105899 -2.09831,-6.250895 -2.30408,-9.28701 0,-2e-6 0,-3e-6 0,-5e-6 -0.2869,-4.113465 0.43717,-8.035016 1.41077,-11.263828 2.75777,-9.1442814 6.66453,-13.9630008 6.66453,-13.9630008 0,0 -4.35053,4.4006093 -7.86718,13.5504008 -1.24998,3.252618 -2.29089,7.298207 -2.26758,11.751011 0,0 0,5e-6 0,5e-6 0.0233,3.288588 0.64217,6.746734 1.91671,10.187878 1.12728,3.038992 2.68137,5.949123 4.5202,8.819487 3.24492,5.07513 7.33083,9.780056 10.37151,15.028274 1.27948,2.222147 2.36554,4.531733 2.84825,6.907472 0.49342,2.336081 0.38953,4.817833 -0.28843,7.121707 -0.2655,0.904738 -0.62703,1.84225 -1.09951,2.816539 -0.71112,1.466375 -1.45572,2.795072 -2.22964,4.000379 z"
       style="fill:#000000;fill-rule:nonzero;stroke:none;stroke-width:0.21804;stroke-linecap:butt;stroke-linejoin:miter;stroke-opacity:1"
       inkscape:path-effect="#path-effect48"
       inkscape:original-d="m 45.357989,133.34763 c 0,0 -6.429767,8.91671 8.282764,-13.72659 C 77.706777,82.582302 113.09386,113.75803 129.40442,80.124629 141.52619,55.128777 90.351936,44.987113 119.51889,3.0924322" />
    <path
       inkscape:original-d="m 58.037653,119.72547 c 9.980159,1.66445 20.139537,4.72406 30.10848,8.34004 1.065228,0.38637 2.103014,1.04858 3.165154,1.38209"
       inkscape:path-effect="#path-effect74"
       id="path54"
       d="m 90.420444,128.13895 c 0,0 -0.631737,-0.37892 -1.994914,-0.84373 -3.934028,-1.31256 -10.495177,-3.42316 -17.7063,-5.14383 -6.741121,-1.60853 -12.681577,-2.42592 -12.681577,-2.42592 0,0 5.891121,1.12832 12.507597,3.07887 7.071035,2.08456 13.489172,4.52721 17.321486,6.03146 1.099467,0.42903 1.803008,0.88185 1.803008,0.88185 0,0 0.413546,-0.0403 0.830828,-0.10436 0.418044,-0.0642 0.810715,-0.16569 0.810715,-0.16569 0,0 -0.256944,-0.31405 -0.472933,-0.64052 -0.216285,-0.32692 -0.41791,-0.66813 -0.41791,-0.66813 z"
       style="fill:#d4aa00;fill-rule:nonzero;stroke:none;stroke-width:1.07929px;stroke-linecap:butt;stroke-linejoin:miter;stroke-opacity:1" />
    <path
       style="fill:#d4aa00;fill-rule:nonzero;stroke:none;stroke-width:0.961509px;stroke-linecap:butt;stroke-linejoin:miter;stroke-opacity:1"
       d="m 94.478423,119.44632 c 0,0 -0.574624,-0.31934 -1.802714,-0.69557 -3.577135,-1.07046 -9.526826,-2.78026 -16.078959,-4.139 -6.116781,-1.26845 -11.493366,-1.86149 -11.493366,-1.86149 0,0 5.340094,0.87158 11.355718,2.44841 6.438001,1.68754 12.269857,3.69622 15.762005,4.94038 0.994291,0.35205 1.634183,0.73449 1.634183,0.73449 0,0 0.368415,-0.0473 0.739066,-0.11588 0.371339,-0.0687 0.71936,-0.16966 0.71936,-0.16966 0,0 -0.238732,-0.27287 -0.44171,-0.55788 -0.203265,-0.28541 -0.393583,-0.5838 -0.393583,-0.5838 z"
       id="path54-4"
       inkscape:path-effect="#path-effect93"
       inkscape:original-d="m 65.103384,112.75026 c 9.084442,1.26276 18.306836,3.73512 27.345024,6.69464 0.965765,0.31625 1.901393,0.87278 2.865308,1.1431" />
    <path
       style="fill:#aa0000;fill-rule:nonzero;stroke:none;stroke-width:1.2201px;stroke-linecap:butt;stroke-linejoin:miter;stroke-opacity:1"
       d="m 87.395837,138.55279 c 0,0 -0.719303,-0.42021 -2.266342,-0.92871 -4.479055,-1.43971 -11.942008,-3.74946 -20.150008,-5.61683 -7.669331,-1.74482 -14.421543,-2.60827 -14.421543,-2.60827 0,0 6.699794,1.21567 14.232625,3.34883 8.054383,2.28086 15.359924,4.9674 19.726482,6.62513 1.24928,0.47146 2.050395,0.97401 2.050395,0.97401 0,0 0.467477,-0.0506 0.938687,-0.12826 0.472076,-0.0778 0.915129,-0.19724 0.915129,-0.19724 0,0 -0.294811,-0.35195 -0.543629,-0.71842 -0.249163,-0.36699 -0.481796,-0.75024 -0.481796,-0.75024 z"
       id="path54-9"
       inkscape:path-effect="#path-effect102"
       inkscape:original-d="m 50.557944,129.39898 c 11.367087,1.78336 22.927078,5.12892 34.265329,9.09953 1.211549,0.42428 2.38953,1.1579 3.597989,1.52294" />
    <path
       style="fill:#aa0000;fill-rule:nonzero;stroke:none;stroke-width:0.961509px;stroke-linecap:butt;stroke-linejoin:miter;stroke-opacity:1"
       d="m 111.55969,92.588837 c 0,0 -0.57061,-0.315402 -1.81304,-0.693159 -3.58228,-1.059784 -9.53931,-2.751364 -16.098371,-4.089921 -6.122981,-1.249562 -11.501798,-1.825545 -11.501798,-1.825545 0,0 5.337856,0.888643 11.347291,2.484354 6.430952,1.707639 12.255718,3.734725 15.742598,4.989474 0.97999,0.350638 1.62388,0.736863 1.62388,0.736863 0,0 0.37933,-0.06825 0.76023,-0.158748 0.38164,-0.09068 0.73637,-0.214226 0.73637,-0.214226 0,0 -0.23177,-0.29587 -0.42472,-0.602433 -0.19324,-0.307017 -0.37244,-0.626659 -0.37244,-0.626659 z"
       id="path54-1"
       inkscape:path-effect="#path-effect111"
       inkscape:original-d="m 82.146481,85.980212 c 9.084456,1.26276 18.306839,3.735123 27.345029,6.694647 0.96578,0.316237 1.90139,0.872758 2.86534,1.14307" />
    <path
       style="fill:#000080;fill-rule:nonzero;stroke:none;stroke-width:1.23776px;stroke-linecap:butt;stroke-linejoin:miter;stroke-opacity:1"
       d="m 120.42023,83.781598 c 0,0 -0.72725,-0.417012 -2.31824,-0.926652 -4.567,-1.424683 -12.17117,-3.706132 -20.536026,-5.535524 -7.813651,-1.708843 -14.685648,-2.532454 -14.685648,-2.532454 0,0 6.814194,1.225093 14.474901,3.377092 8.192623,2.30142 15.619943,5.012717 20.060253,6.686408 1.25222,0.469434 2.07296,0.979504 2.07296,0.979504 0,0 0.48868,-0.08071 0.9801,-0.190034 0.49235,-0.109539 0.95047,-0.26209 0.95047,-0.26209 0,0 -0.29187,-0.384966 -0.53331,-0.782978 -0.24179,-0.39859 -0.46546,-0.813272 -0.46546,-0.813272 z"
       id="path54-8"
       inkscape:path-effect="#path-effect120"
       inkscape:original-d="m 82.880316,74.786968 c 11.575,1.759653 23.340834,5.096587 34.878414,9.065739 1.23285,0.424156 2.43037,1.160858 3.66027,1.525141" />
    <path
       style="fill:#008000;fill-rule:nonzero;stroke:none;stroke-width:1.28921px;stroke-linecap:butt;stroke-linejoin:miter;stroke-opacity:1"
       d="m 125.319,74.632535 c 0,0 -0.75655,-0.435778 -2.41263,-0.969566 -4.75118,-1.491621 -12.66322,-3.881195 -21.36575,-5.800236 -8.129708,-1.792725 -15.280721,-2.66114 -15.280721,-2.66114 0,0 7.090153,1.286446 15.059701,3.540422 8.5222,2.410281 16.24922,5.2473 20.86795,6.998024 1.30308,0.491218 2.15691,1.024165 2.15691,1.024165 0,0 0.50906,-0.08313 1.02104,-0.196076 0.51297,-0.11316 0.99033,-0.271212 0.99033,-0.271212 0,0 -0.30318,-0.401486 -0.55379,-0.816469 -0.25096,-0.415586 -0.48304,-0.847912 -0.48304,-0.847912 z"
       id="path54-43"
       inkscape:path-effect="#path-effect129"
       inkscape:original-d="m 86.259899,65.201593 c 12.040911,1.84999 24.282281,5.345375 36.287061,9.499911 1.28278,0.443933 2.5292,1.213898 3.80887,1.595412" />
    <path
       style="fill:#008000;fill-rule:nonzero;stroke:none;stroke-width:0.961509px;stroke-linecap:butt;stroke-linejoin:miter;stroke-opacity:1"
       d="m 124.12879,63.590929 c 0,0 -0.57061,-0.315416 -1.81306,-0.693166 -3.58229,-1.059791 -9.53929,-2.751361 -16.09836,-4.08992 -6.12298,-1.249562 -11.501795,-1.825553 -11.501795,-1.825553 0,0 5.337855,0.888651 11.347285,2.484363 6.43097,1.707643 12.2557,3.734716 15.74261,4.989474 0.97998,0.350626 1.62386,0.736861 1.62386,0.736861 0,0 0.37933,-0.06824 0.76023,-0.158741 0.38164,-0.09067 0.73637,-0.214215 0.73637,-0.214215 0,0 -0.23176,-0.295874 -0.42471,-0.60244 -0.19323,-0.307018 -0.37243,-0.626663 -0.37243,-0.626663 z"
       id="path54-19"
       inkscape:path-effect="#path-effect138"
       inkscape:original-d="m 94.715575,56.98229 c 9.084445,1.262775 18.306845,3.73513 27.345025,6.694655 0.96579,0.31623 1.9014,0.87276 2.86533,1.143087" />
    <path
       style="fill:#d4aa00;fill-rule:nonzero;stroke:none;stroke-width:0.961509px;stroke-linecap:butt;stroke-linejoin:miter;stroke-opacity:1"
       d="m 141.66711,40.068446 c 0,0 -0.57061,-0.315429 -1.81308,-0.693181 -3.58229,-1.059788 -9.53931,-2.751363 -16.09838,-4.08992 -6.12298,-1.249562 -11.50179,-1.82555 -11.50179,-1.82555 0,0 5.33785,0.888647 11.34729,2.484359 6.43095,1.70764 12.25571,3.73472 15.74262,4.989475 0.97998,0.35062 1.62386,0.736872 1.62386,0.736872 0,0 0.37933,-0.06824 0.76024,-0.158736 0.38164,-0.09067 0.73637,-0.214213 0.73637,-0.214213 0,0 -0.23176,-0.295873 -0.42471,-0.60244 -0.19323,-0.307019 -0.37242,-0.626666 -0.37242,-0.626666 z"
       id="path54-3"
       inkscape:path-effect="#path-effect147"
       inkscape:original-d="m 112.25386,33.459795 c 9.08445,1.262769 18.30684,3.735128 27.34504,6.694652 0.96578,0.316223 1.90142,0.872786 2.86534,1.143105" />
    <path
       style="fill:#000080;fill-rule:nonzero;stroke:none;stroke-width:1.14397px;stroke-linecap:butt;stroke-linejoin:miter;stroke-opacity:1"
       d="m 148.04705,30.820584 c 0,0 -0.68633,-0.36449 -2.17289,-0.791253 -4.3067,-1.201729 -11.45913,-3.113025 -19.34203,-4.601796 -7.354,-1.388885 -13.80665,-1.994327 -13.80665,-1.994327 0,0 6.40881,0.978344 13.63435,2.781339 7.73764,1.930781 14.73915,4.243162 18.93621,5.678716 1.17561,0.399749 1.94975,0.846608 1.94975,0.846608 0,0 0.45098,-0.08814 0.90316,-0.202752 0.45305,-0.114833 0.87376,-0.268053 0.87376,-0.268053 0,0 -0.28215,-0.348 -0.51862,-0.709406 -0.23683,-0.361948 -0.45704,-0.739076 -0.45704,-0.739076 z"
       id="path54-2"
       inkscape:path-effect="#path-effect156"
       inkscape:original-d="m 112.72548,23.433208 c 10.92841,1.371272 22.00798,4.162301 32.85962,7.528089 1.1595,0.359638 2.27977,1.00203 3.43761,1.307769" />
    <path
       style="fill:#000000;fill-rule:nonzero;stroke:none;stroke-width:1.23075px;stroke-linecap:butt;stroke-linejoin:miter;stroke-opacity:1"
       d="m 155.21959,20.581547 c 0,0 -0.75168,-0.373822 -2.36559,-0.794782 -4.71166,-1.192339 -12.52111,-3.077304 -21.14102,-4.503105 -8.03359,-1.328817 -15.07029,-1.845738 -15.07029,-1.845738 0,0 6.99771,0.919473 14.9043,2.697387 8.47581,1.905915 16.13386,4.225414 20.73417,5.672332 1.28242,0.400889 2.12936,0.860082 2.12936,0.860082 0,0 0.48477,-0.106511 0.96968,-0.241403 0.48586,-0.135157 0.93647,-0.31037 0.93647,-0.31037 0,0 -0.31465,-0.367491 -0.58109,-0.750537 -0.26685,-0.383633 -0.51599,-0.783866 -0.51599,-0.783866 z"
       id="path54-84"
       inkscape:path-effect="#path-effect165"
       inkscape:original-d="m 116.64269,13.437922 c 11.96793,1.252816 24.07658,4.000801 35.92489,7.359281 1.26601,0.35887 2.48393,1.016732 3.74909,1.318747" />
    <path
       inkscape:original-d="m 88.839077,147.17668 c 0,0 19.741553,-19.28484 3.109221,-41.40815"
       inkscape:path-effect="#path-effect175"
       sodipodi:nodetypes="cc"
       id="path167"
       d="m 89.927314,148.29069 c 3.116243,-3.04415 5.713886,-7.73689 6.081913,-8.42004 2.641372,-4.88387 3.958773,-10.18202 3.834013,-15.2686 0,0 0,0 0,0 -0.177361,-6.04205 -2.438229,-10.94292 -4.356655,-14.07575 -1.946138,-3.17809 -3.538287,-4.75777 -3.538287,-4.75777 0,0 1.288894,1.84005 2.746686,5.17174 1.441561,3.29458 2.995345,8.16825 2.682623,13.63271 -10e-7,0 0,0 0,0 -0.239233,4.63133 -1.701868,9.33028 -4.110458,13.82047 -0.14536,0.26983 -2.692441,4.91068 -5.516309,7.66922 z"
       style="fill:#000000;fill-rule:nonzero;stroke:none;stroke-width:0.824088px;stroke-linecap:butt;stroke-linejoin:miter;stroke-opacity:1" />
    <path
       inkscape:original-d="m 83.563778,95.186234 c 0,0 -10.249772,-16.097924 -1.93014,-30.65579 C 92.018193,46.359317 113.81035,50.07934 113.81035,50.07934"
       inkscape:path-effect="#path-effect177"
       sodipodi:nodetypes="csc"
       id="path169"
       d="m 78.341209,67.989374 c -2.434331,7.054744 -1.125268,14.141312 0.809898,19.133963 2.568383,4.8754 4.412643,8.062852 4.412643,8.062852 0,0 -1.095146,-3.525886 -2.894202,-8.624857 -1.131469,-5.059421 -1.576388,-11.521241 0.608217,-17.533812 0.439706,-1.243778 1.002234,-2.489436 1.70798,-3.724365 1.031305,-1.804601 2.178492,-3.377163 3.401544,-4.744864 2.458578,-2.752988 5.403494,-4.956616 8.532497,-6.553581 2.985797,-1.540501 6.054034,-2.484163 8.807064,-3.062328 5.94788,-0.4332 10.06077,-0.860674 10.08345,-0.863041 0,0 0,0 0,0 6e-5,-10e-7 5e-5,-10e-7 5e-5,-10e-7 0,0 1e-5,3e-6 -5e-5,-1.7e-5 0,0 0,0 0,0 -0.0223,-0.0021 -4.0475,-0.37836 -10.20054,-0.735432 -2.93029,0.221465 -6.330918,0.851023 -9.788397,2.267252 -3.564658,1.474635 -6.97847,3.768767 -9.755822,6.87095 -1.370889,1.533023 -2.644171,3.281124 -3.78401,5.275639 -0.8004,1.400557 -1.439724,2.815622 -1.940322,4.231642 z"
       style="fill:#000000;fill-rule:nonzero;stroke:none;stroke-width:0.824088px;stroke-linecap:butt;stroke-linejoin:miter;stroke-opacity:1" />
    <path
       inkscape:original-d="m 127.67332,49.136797 c 0,0 19.52119,-2.408989 31.92466,-25.708156"
       inkscape:path-effect="#path-effect179"
       id="path173"
       d="m 154.70093,28.505038 c -5.40781,7.831889 -11.59585,13.256339 -17.76525,16.761282 l 0,0 c -2.66517,1.515123 -4.89797,2.453086 -6.60386,3.063017 l 0,0 c -0.84166,0.300926 -1.47515,0.493259 -1.94586,0.624823 l 0,0 c 0,0 0,0 0,0 -0.23323,0.06519 -0.40135,0.108276 -0.52612,0.138903 l 0,0 0,0 0,0 c -0.0616,0.01511 -0.10524,0.02536 -0.13768,0.0328 -0.0324,0.0074 -0.0488,0.01092 -0.0488,0.01092 0,0 0.0168,-6.1e-4 0.05,-0.0024 0.0331,-0.0018 0.0784,-0.0044 0.14153,-0.0089 l 0,0 0,0 0,0 c 0.12759,-0.009 0.30315,-0.02356 0.54444,-0.04978 0,0 0,0 0,0 l 0,0 c 0.48488,-0.05267 1.1549,-0.14306 2.0405,-0.314909 l 0,0 c 1.7856,-0.346494 4.21556,-0.976766 7.12315,-2.194466 l 0,0 c 6.66694,-2.794977 14.00867,-8.031057 19.69255,-16.29396 1.28592,-1.865969 2.52863,-3.898335 3.70708,-6.111983 l -2.74935,-1.463632 c -1.12301,2.109523 -2.30431,4.040715 -3.52237,5.808206 z"
       style="fill:#000000;fill-rule:nonzero;stroke:none;stroke-width:0.824088px;stroke-linecap:butt;stroke-linejoin:miter;stroke-opacity:1" />
  </g>
</svg>
