<?xml version="1.0" encoding="UTF-8" standalone="no"?>
<svg
   xmlns:osb="http://www.openswatchbook.org/uri/2009/osb"
   xmlns:dc="http://purl.org/dc/elements/1.1/"
   xmlns:cc="http://creativecommons.org/ns#"
   xmlns:rdf="http://www.w3.org/1999/02/22-rdf-syntax-ns#"
   xmlns:svg="http://www.w3.org/2000/svg"
   xmlns="http://www.w3.org/2000/svg"
   xmlns:sodipodi="http://sodipodi.sourceforge.net/DTD/sodipodi-0.dtd"
   xmlns:inkscape="http://www.inkscape.org/namespaces/inkscape"
   viewBox="0 0 200 200"
   width="200"
   height="200"
   version="1.1"
   id="svg2955"
   sodipodi:docname="favicon.svg"
   inkscape:version="1.0 (4035a4fb49, 2020-05-01)"
   inkscape:export-filename="C:\Users\jorda\Desktop\Documents\Projects\jordantwells\favicon.png"
   inkscape:export-xdpi="96"
   inkscape:export-ydpi="96">
  <metadata
     id="metadata2961">
    <rdf:RDF>
      <cc:Work
         rdf:about="">
        <dc:format>image/svg+xml</dc:format>
        <dc:type
           rdf:resource="http://purl.org/dc/dcmitype/StillImage" />
        <dc:title />
      </cc:Work>
    </rdf:RDF>
  </metadata>
  <defs
     id="defs2959">
    <inkscape:path-effect
       effect="powerstroke"
       id="path-effect6387"
       is_visible="true"
       lpeversion="1"
       offset_points="0.2,3.2510879 | 0.97437193,1.0207793 | 1.8,3.2510879"
       sort_points="true"
       interpolator_type="CentripetalCatmullRom"
       interpolator_beta="0.2"
       start_linecap_type="zerowidth"
       linejoin_type="round"
       miter_limit="4"
       scale_width="1"
       end_linecap_type="zerowidth" />
    <inkscape:path-effect
       effect="powerstroke"
       id="path-effect6385"
       is_visible="true"
       lpeversion="1"
       offset_points="0.23537475,1.7302502 | 0.5,3.2510879 | 0.75910305,3.8741762"
       sort_points="true"
       interpolator_type="CentripetalCatmullRom"
       interpolator_beta="0.2"
       start_linecap_type="zerowidth"
       linejoin_type="round"
       miter_limit="4"
       scale_width="1"
       end_linecap_type="zerowidth" />
    <inkscape:path-effect
       effect="powerstroke"
       id="path-effect6383"
       is_visible="true"
       lpeversion="1"
       offset_points="1.7699424,8.4796492 | 0.63889163,4.8589419 | 4.0603293,4.8294555"
       sort_points="true"
       interpolator_type="CentripetalCatmullRom"
       interpolator_beta="0.2"
       start_linecap_type="zerowidth"
       linejoin_type="round"
       miter_limit="4"
       scale_width="1"
       end_linecap_type="zerowidth" />
    <inkscape:path-effect
       effect="sketch"
       id="path-effect6381"
       is_visible="true"
       lpeversion="1"
       nbiter_approxstrokes="4"
       strokelength="92"
       strokelength_rdm="0.3;1"
       strokeoverlap="0.3"
       strokeoverlap_rdm="0.3;1"
       ends_tolerance="0.1;1"
       parallel_offset="5;1"
       tremble_size="5;1"
       tremble_frequency="1"
       nbtangents="5"
       tgt_places_rdmness="1;1"
       tgtscale="10"
       tgtlength="20"
       tgtlength_rdm="0.3;1" />
    <inkscape:path-effect
       effect="bend_path"
       id="path-effect6379"
       is_visible="true"
       lpeversion="1"
       bendpath="M 26.366392,101.33423 H 147.65008"
       prop_scale="1"
       scale_y_rel="true"
       vertical="false"
       hide_knot="false" />
    <inkscape:path-effect
       effect="rough_hatches"
       id="path-effect6377"
       is_visible="true"
       lpeversion="1"
       direction="87.008236,96.334228 , 30.320922,0"
       dist_rdm="20;-2008234149"
       growth="0"
       do_bend="true"
       bender="87.008236,101.33423 , 5,0"
       bottom_edge_variation="2;-260170637"
       top_edge_variation="1;1"
       bottom_tgt_variation="0;1"
       top_tgt_variation="0;1"
       scale_bf="30"
       scale_bb="1"
       scale_tf="1"
       scale_tb="1"
       top_smth_variation="0;1"
       bottom_smth_variation="0;1"
       fat_output="true"
       stroke_width_top="1"
       stroke_width_bottom="1"
       front_thickness="1"
       back_thickness="0.25" />
    <inkscape:path-effect
       effect="roughen"
       id="path-effect6375"
       is_visible="true"
       lpeversion="1"
       method="segments"
       max_segment_size="1.21284"
       segments="2"
       displace_x="10;1"
       displace_y="10;1"
       global_randomize="1;1"
       handles="along"
       shift_nodes="true"
       fixed_displacement="true"
       spray_tool_friendly="true" />
    <linearGradient
       id="linearGradient6091"
       osb:paint="solid">
      <stop
         style="stop-color:#f8b188;stop-opacity:1;"
         offset="0"
         id="stop6089" />
    </linearGradient>
    <inkscape:path-effect
       effect="powerstroke"
       id="path-effect3907"
       is_visible="true"
       lpeversion="1"
       offset_points="0.64533398,2.3605886 | 2.526696,3.3339137 | 4.7528618,0.71968709"
       sort_points="true"
       interpolator_type="CentripetalCatmullRom"
       interpolator_beta="0.2"
       start_linecap_type="zerowidth"
       linejoin_type="round"
       miter_limit="4"
       scale_width="1"
       end_linecap_type="zerowidth" />
    <inkscape:path-effect
       effect="skeletal"
       id="path-effect3895"
       is_visible="true"
       lpeversion="1"
       pattern="M 0,0 H 1"
       copytype="repeated"
       prop_scale="1.07"
       scale_y_rel="false"
       spacing="0"
       normal_offset="0"
       tang_offset="0"
       prop_units="false"
       vertical_pattern="false"
       hide_knot="false"
       fuse_tolerance="0" />
    <filter
       inkscape:collect="always"
       style="color-interpolation-filters:sRGB"
       id="filter6393"
       x="-5.2032925e-06"
       width="1.0000104"
       y="-4.4547267e-06"
       height="1.0000089">
      <feGaussianBlur
         inkscape:collect="always"
         stdDeviation="0.0003628657"
         id="feGaussianBlur6395" />
    </filter>
  </defs>
  <sodipodi:namedview
     inkscape:document-rotation="0"
     pagecolor="#ffffff"
     bordercolor="#666666"
     borderopacity="1"
     objecttolerance="10"
     gridtolerance="10"
     guidetolerance="10"
     inkscape:pageopacity="0"
     inkscape:pageshadow="2"
     inkscape:window-width="1920"
     inkscape:window-height="1017"
     id="namedview2957"
     showgrid="false"
     inkscape:zoom="2.8284271"
     inkscape:cx="135.96166"
     inkscape:cy="144.56888"
     inkscape:window-x="-8"
     inkscape:window-y="-8"
     inkscape:window-maximized="1"
     inkscape:current-layer="layer6" />
  <g
     transform="scale(0.9921)"
     id="g2953">
    <rect
       class="anchor"
       x="250.55521"
       y="-4.684289"
       width="1"
       height="1"
       id="rect2839" />
    <ellipse
       style="fill:#000000;stroke:#000000;stroke-width:2.01593;stroke-linecap:butt;stroke-linejoin:round;stroke-miterlimit:4;stroke-dasharray:none;paint-order:normal"
       id="path3980"
       cx="107.08012"
       cy="36.75761"
       r="100.79629" />
  </g>
  <g
     inkscape:groupmode="layer"
     id="layer5"
     inkscape:label="Layer 1"
     style="display:inline">
    <circle
       r="100"
       style="fill:#d25a4a;fill-opacity:1;stroke:#000000;stroke-width:0;stroke-linecap:butt;stroke-linejoin:round;stroke-miterlimit:4;stroke-dasharray:none;paint-order:normal"
       id="path4024"
       cx="100.05"
       cy="101.00454" />
  </g>
  <g
     inkscape:groupmode="layer"
     id="layer6"
     inkscape:label="Layer 2"
     style="filter:url(#filter6393)">
    <path
       style="opacity:0.991;fill:#f8b188;fill-rule:nonzero;stroke:none;stroke-width:10.3837;stroke-linecap:square;stroke-linejoin:round;stroke-miterlimit:4;stroke-dasharray:none;stroke-opacity:1;paint-order:markers stroke fill"
       d="m 147.58606,132.23714 h 0 l 0,0 c 0.0434,-0.38117 -1.80381,-1.13832 -8.45771,-4.00972 v 0 c -4.75689,-2.05277 -11.71397,-5.33764 -18.81079,-10.50725 l 0,0 c -3.88536,-2.83025 -7.66159,-6.11244 -11.16801,-9.93988 v 0 c -2.80345,-3.06011 -5.50088,-6.5715 -7.93092,-10.608105 l -1e-5,-1.4e-5 C 96.070614,88.620699 91.859618,77.281772 90.728812,62.084513 l -1e-6,-9e-6 C 89.733406,48.470893 92.109819,37.204259 96.2352,29.10969 v 0 c 1.944493,-3.815364 4.21016,-6.787885 6.52222,-8.897987 v 0 c 2.24406,-2.048033 4.38021,-3.149606 6.15794,-3.576614 l 0,0 c 0.85405,-0.205142 1.61794,-0.254315 2.29681,-0.195684 l 0,0 c 0.66073,0.05706 1.29662,0.220655 1.92189,0.499371 l 0,0 c 0.61571,0.274447 1.29774,0.694999 2.02186,1.338466 l 1e-5,2e-6 c 0.71683,0.636987 1.50474,1.519596 2.30462,2.73662 v 0 c 0.25263,0.384378 0.50638,0.802059 0.75912,1.255483 v 0 c 1.28269,2.30128 2.56887,5.576209 3.50963,10.134562 v 0 c 1.04822,5.079036 1.65847,11.715403 1.35178,20.219944 l 0,5e-6 c -1.1411,31.636857 -10.93766,62.310072 -25.65827,87.545652 v 0 c -6.727468,11.53292 -14.128222,21.27672 -21.321601,28.64744 v 0 c -3.544884,3.63228 -6.967659,6.61413 -10.151702,8.92346 v 0 c -3.202615,2.32281 -6.024417,3.86431 -8.381471,4.75573 l -5e-6,0 c -2.729624,1.01891 -5.681386,1.79811 -8.654957,2.31182 v 0 c -3.006894,0.51947 -5.956833,0.75406 -8.656002,0.72015 h 0 c -2.764287,-0.0347 -5.124198,-0.34853 -6.989203,-0.84283 v 0 c -0.939382,-0.24897 -1.700783,-0.52968 -2.306838,-0.81231 l 0,0 c -0.612738,-0.28574 -1.027333,-0.55492 -1.304622,-0.76521 l -1e-6,0 c -0.257975,-0.19564 -0.439624,-0.37331 -0.528426,-0.47658 v 0 c -0.101873,-0.11846 -0.213444,-0.28348 -0.264716,-0.61234 l 0,0 c -0.05381,-0.34514 -0.03955,-0.89931 0.173836,-1.68172 l 2e-6,0 c 0.221071,-0.81059 0.641012,-1.81869 1.343068,-3.02167 l 0,0 c 1.483469,-2.54194 4.025599,-5.61656 7.841212,-9.16782 v 0 c 4.071988,-3.78987 9.367247,-7.91429 15.873054,-12.32715 l 1.5e-5,-1e-5 c 3.319072,-2.25168 6.666951,-4.36315 9.992529,-6.33922 v 0 C 74.83245,143.09627 86.25301,137.55986 97.66825,132.77239 v 0 c 15.46108,-6.48426 30.62248,-11.47205 43.40649,-15.21676 l 1e-5,0 c 16.48162,-4.82782 31.4128,-8.24068 37.46035,-9.66835 7.21344,-1.7029 8.9905,-2.28052 8.96105,-2.52436 -0.0255,-0.21143 -1.80537,-0.52193 -9.34437,0.19396 -7.01812,0.66643 -20.75272,2.45562 -38.51081,6.45155 l -1e-5,10e-6 c -13.19902,2.97005 -28.83484,7.21405 -44.965458,13.15407 v 0 c -11.895601,4.3805 -23.945145,9.64391 -35.380191,15.93218 v 0 c -3.543584,1.94866 -7.131378,4.05008 -10.708125,6.31221 l -1e-5,1e-5 c -6.915703,4.37319 -12.807041,8.59929 -17.555968,12.64657 v 0 c -4.401663,3.75132 -7.924254,7.43479 -10.370971,11.04154 l 0,0 c -1.181451,1.7416 -2.153815,3.52608 -2.845354,5.34939 l -4e-6,0 c -0.677626,1.78663 -1.10056,3.65111 -1.156778,5.5619 l 0,0 c -0.05558,1.88918 0.250611,3.75192 0.947016,5.52504 v 0 c 0.681708,1.73569 1.688855,3.26266 2.910179,4.57578 l 8e-6,10e-6 c 1.19396,1.2837 2.576464,2.34693 4.045383,3.22334 l 0,0 c 1.448933,0.86449 3.015042,1.56721 4.639112,2.13366 v 0 c 3.180945,1.10948 6.744542,1.75191 10.428636,2.00623 h 0 c 3.636788,0.25105 7.494575,0.13081 11.359955,-0.34656 v 0 c 3.822925,-0.47212 7.711543,-1.30101 11.435356,-2.50091 l 2.7e-5,-10e-6 c 4.065398,-1.31819 8.219104,-3.49249 12.329567,-6.27991 v 0 c 4.129798,-2.80052 8.331752,-6.29859 12.496351,-10.37332 v 0 c 8.435646,-8.25359 16.819489,-18.96967 24.309889,-31.41885 v 0 c 16.36281,-27.19528 27.3369,-60.584485 28.61706,-95.303144 l 0,-1e-5 c 0.35468,-9.620811 -0.32304,-17.670966 -1.73173,-24.33971 v 0 c -1.26366,-5.982175 -3.14127,-10.975615 -5.49763,-15.04783 v 0 c -0.46582,-0.805023 -0.95341,-1.579429 -1.46251,-2.322373 v 0 c -1.61311,-2.3540665 -3.44581,-4.3971834 -5.48362,-6.0888432 l -10e-6,-6.8e-6 c -2.07713,-1.7243049 -4.34207,-3.0618105 -6.74587,-3.9813033 l 0,0 c -2.44708,-0.93604539 -4.96465,-1.41072273 -7.47305,-1.46276725 l -10e-6,-2e-7 c -2.54633,-0.05283026 -5.02463,0.33040047 -7.37305,1.05175855 l 0,0 C 99.608747,2.5311061 95.353571,5.4081871 91.811747,9.011367 v 0 c -3.685516,3.749361 -6.749775,8.427909 -9.105378,13.695057 v 0 c -4.992513,11.163297 -6.934835,25.183093 -5.092462,40.658422 l 10e-7,1.1e-5 c 2.039702,17.252464 7.707636,30.182774 14.516487,39.789543 l 1.1e-5,2e-5 c 3.187157,4.49683 6.651174,8.30421 10.172944,11.52276 v 0 c 4.39959,4.02079 9.07822,7.25214 13.74915,9.813 l 1e-5,1e-5 c 8.54362,4.68408 16.54184,6.84903 21.90391,7.75223 v 0 c 7.89171,1.3293 9.60631,0.19982 9.62964,-0.005 z"
       id="path3885"
       sodipodi:nodetypes="cssssc"
       inkscape:path-effect="#path-effect6383"
       inkscape:original-d="m 147.58606,132.23714 c 0,0 -57.264516,-6.51442 -63.414701,-69.512465 C 78.298947,2.5719435 134.20034,-17.53653 131.62886,52.935762 129.05736,123.40807 85.710909,180.7206 59.995895,189.55952 34.280882,198.39841 -4.4975133,188.16371 51.340819,151.61369 107.17913,115.06363 187.49615,105.36292 187.49615,105.36292" />
    <circle
       cy="157.80289"
       cx="98.714333"
       id="path3921-6"
       style="fill:#000000;stroke:#f8b188;stroke-width:2;stroke-linecap:butt;stroke-linejoin:round;stroke-miterlimit:4;stroke-dasharray:none;stroke-opacity:1;paint-order:normal"
       r="1" />
  </g>
</svg>
